<svg width="58" height="53" viewBox="0 0 58 53" fill="none" xmlns="http://www.w3.org/2000/svg">
<path d="M29 0C12.8889 0 0 11.0234 0 24.8026V44.0936C0 46.2863 1.01845 48.3891 2.8313 49.9396C4.64415 51.4901 7.10291 52.3611 9.66667 52.3611H19.3333V30.3143H6.44444V24.8026C6.44444 19.6864 8.82083 14.7796 13.0508 11.1619C17.2808 7.54413 23.0179 5.5117 29 5.5117C34.9821 5.5117 40.7192 7.54413 44.9492 11.1619C49.1792 14.7796 51.5556 19.6864 51.5556 24.8026V30.3143H38.6667V52.3611H48.3333C50.8971 52.3611 53.3559 51.4901 55.1687 49.9396C56.9816 48.3891 58 46.2863 58 44.0936V24.8026C58 11.0234 45.0144 0 29 0Z" fill="#3A3838"/>
</svg>
