<svg width="58" height="53" viewBox="0 0 58 53" fill="none" xmlns="http://www.w3.org/2000/svg">
<path d="M58 0V36.3619C58 39.0621 56.8743 41.6518 54.8707 43.5612C52.867 45.4705 50.1494 46.5432 47.3158 46.5432C44.4822 46.5432 41.7646 45.4705 39.7609 43.5612C37.7572 41.6518 36.6316 39.0621 36.6316 36.3619C36.6316 33.6616 37.7572 31.072 39.7609 29.1626C41.7646 27.2532 44.4822 26.1806 47.3158 26.1806C48.9642 26.1806 50.5211 26.5296 51.8947 27.1696V10.0941L21.3684 16.2901V42.1798C21.3684 44.88 20.2428 47.4697 18.2391 49.3791C16.2354 51.2884 13.5178 52.3611 10.6842 52.3611C7.85058 52.3611 5.13301 51.2884 3.12933 49.3791C1.12565 47.4697 0 44.88 0 42.1798C0 39.4795 1.12565 36.8899 3.12933 34.9805C5.13301 33.0711 7.85058 31.9985 10.6842 31.9985C12.3326 31.9985 13.8895 32.3475 15.2632 32.9875V8.72685L58 0Z" fill="#3A3838"/>
</svg>
