<svg width="58" height="53" viewBox="0 0 58 53" fill="none" xmlns="http://www.w3.org/2000/svg">
<path d="M29 0C32.2963 0 35.4575 0.871043 37.7883 2.42151C40.1191 3.97197 41.4286 6.07485 41.4286 8.26754V24.8026C41.4286 26.9953 40.1191 29.0982 37.7883 30.6487C35.4575 32.1991 32.2963 33.0702 29 33.0702C25.7037 33.0702 22.5425 32.1991 20.2117 30.6487C17.8809 29.0982 16.5714 26.9953 16.5714 24.8026V8.26754C16.5714 6.07485 17.8809 3.97197 20.2117 2.42151C22.5425 0.871043 25.7037 0 29 0ZM58 24.8026C58 34.5308 47.1871 42.5503 33.1429 43.9007V52.3611H24.8571V43.9007C10.8129 42.5503 0 34.5308 0 24.8026H8.28571C8.28571 28.4571 10.4681 31.9619 14.3528 34.546C18.2375 37.1301 23.5062 38.5819 29 38.5819C34.4938 38.5819 39.7625 37.1301 43.6472 34.546C47.5319 31.9619 49.7143 28.4571 49.7143 24.8026H58Z" fill="#3A3838"/>
</svg>
