<svg width="58" height="52" viewBox="0 0 58 52" fill="none" xmlns="http://www.w3.org/2000/svg">
<path d="M29 0C32.8456 0 36.5338 1.36964 39.253 3.80761C41.9723 6.24558 43.5 9.55219 43.5 13C43.5 16.4478 41.9723 19.7544 39.253 22.1924C36.5338 24.6304 32.8456 26 29 26C25.1544 26 21.4662 24.6304 18.747 22.1924C16.0277 19.7544 14.5 16.4478 14.5 13C14.5 9.55219 16.0277 6.24558 18.747 3.80761C21.4662 1.36964 25.1544 0 29 0ZM29 32.5C45.0225 32.5 58 38.3175 58 45.5V52H0V45.5C0 38.3175 12.9775 32.5 29 32.5Z" fill="#3A3838"/>
</svg>
